<svg width="44" height="44" viewBox="0 0 44 44" fill="none" xmlns="http://www.w3.org/2000/svg">
<path d="M37.2707 39.7777C37.2707 32.8977 30.4263 27.3333 21.9996 27.3333C13.573 27.3333 6.72852 32.8977 6.72852 39.7777M21.9996 21.9999C24.3571 21.9999 26.618 21.0634 28.285 19.3965C29.952 17.7295 30.8885 15.4685 30.8885 13.1111C30.8885 10.7536 29.952 8.49265 28.285 6.82566C26.618 5.15867 24.3571 4.22217 21.9996 4.22217C19.6421 4.22217 17.3812 5.15867 15.7142 6.82566C14.0472 8.49265 13.1107 10.7536 13.1107 13.1111C13.1107 15.4685 14.0472 17.7295 15.7142 19.3965C17.3812 21.0634 19.6421 21.9999 21.9996 21.9999V21.9999Z" stroke="black" stroke-opacity="0.9" stroke-width="2" stroke-linecap="round" stroke-linejoin="round"/>
</svg>
